<svg xmlns="http://www.w3.org/2000/svg" viewBox="0 0 512 512"><path fill="#75706b" d="M381 123H125l13-103a20 20 0 0129-15l37 17 83-15 34-6a43 43 0 0150 37l10 85z"/><path fill="#605b58" d="M298 123l28-37-26-5a17 17 0 01-5-32l14-8-22-34 34-6a43 43 0 0150 37l10 85h-83zM163 383l-72 12 23 117h172"/><path fill="#f7cb92" d="M403 159v237l-2 48H191a28 28 0 01-28-28v-78h-37V159h277z"/><g fill="#e2b27f"><path d="M403 164v232l-2 48H284V164z"/><path d="M403 164v65l-5 14H127v-79z"/></g><path fill="#ba7052" d="M403 315h-84V191h84"/><path fill="#75706b" d="M341 112H171a146 146 0 00-130 79h430c-25-49-75-79-130-79z"/><path fill="#605b58" d="M471 191h-86a146 146 0 00-129-79h85a146 146 0 01130 79z"/><path fill="#a35d45" d="M203 365a8 8 0 01-8 8h-32v-16h32a8 8 0 018 8z"/><path fill="#605b58" d="M385 223a8 8 0 01-8 8H270v23a24 24 0 01-24 24h-51a24 24 0 01-24-24v-23h-45v46l-7 1H90a24 24 0 01-24-24v-23a8 8 0 010-16h311a8 8 0 018 8z"/><path fill="#75706b" d="M206 395l22 117h173l27-154z"/><path fill="#e2b27f" d="M379 316h-33v-68a22 22 0 0122-22h11a22 22 0 0122 22v46a22 22 0 01-22 22z"/><path fill="#fff2e9" d="M246 215l-29 63h-18l29-63zm-120 0l-29 63h-7l-10-2 28-61h18z"/><path fill="#605b58" d="M428 358l-28 154h-55l-18-137z"/></svg>